<svg width="594" height="622" viewBox="0 0 594 622" fill="none" xmlns="http://www.w3.org/2000/svg">
<path d="M502.19 223.266C523.904 235.638 552.593 231.99 573.198 244.995C591.267 256.257 598.559 278.461 591.109 298.605C585.561 313.038 573.04 321.92 559.726 328.264C528.501 343.173 492.68 344.918 459.711 355.703C426.902 366.33 393.775 391.548 392.348 426.125C391.873 435.482 393.933 444.999 391.239 453.881C385.533 473.548 361.599 480.368 341.311 484.016C307.867 490.043 274.582 496.07 241.138 502.097C215.302 506.697 188.991 511.614 166.008 523.985C146.354 534.453 130.029 549.997 111.008 561.575C37.8151 615.235 -154.5 633 -232 613.5C-260.53 613.5 -290 564.588 -290 536.039V5.4989C-290 -23.5262 -266.542 -47 -237.536 -47L-53.833 -46.8414C-41.6284 -39.2283 -30.6918 -29.7118 -21.9742 -18.2921C1.32547 11.8432 11.3111 54.1912 44.4378 73.2241C80.2592 93.843 125.591 76.872 166.642 82.2647C215.144 88.609 253.184 125.089 291.066 155.858C303.112 165.692 316.109 175.208 331.167 178.698C368.732 187.104 409.308 155.858 444.495 171.402C468.27 182.028 479.524 210.26 502.19 223.266Z" fill="url(#paint0_linear)"/>
<defs>
<linearGradient id="paint0_linear" x1="152" y1="-47" x2="152" y2="621.178" gradientUnits="userSpaceOnUse">
<stop stop-color="#0093A2"/>
<stop offset="1" stop-color="#00E6B2"/>
</linearGradient>
</defs>
</svg>
