<svg width="1400" height="798" viewBox="0 0 1400 798" fill="none" xmlns="http://www.w3.org/2000/svg">
<mask id="mask0" mask-type="alpha" maskUnits="userSpaceOnUse" x="-3" y="-63" width="1404" height="861">
<path d="M1401 653.5L-3 798V-63H1401V653.5Z" fill="#CBD5E0"/>
</mask>
<g mask="url(#mask0)">
<path d="M1401 547.5L-3 692V-169H1401V547.5Z" fill="#023365"/>
<path d="M282.5 725.016C463.531 725.016 616.819 731.598 667.132 741C678.417 703.861 685 663.901 685 623.002V622.061C685 560.477 670.894 502.183 645.972 450C633.747 452.351 601.773 457.052 580.143 458.462C555.222 459.872 533.592 480.557 503.969 485.258C474.816 489.96 456.478 506.884 416.98 512.995C377.482 518.637 367.608 524.278 342.687 522.868C319.647 521.457 274.977 579.281 247.704 585.393C233.128 583.512 211.028 559.536 184.226 555.305C155.073 550.604 124.509 524.278 94.4159 505.943C64.3224 487.609 7.42699 477.737 -10.9112 477.737C-29.2494 477.737 -41.0047 477.737 -64.9854 464.574C-71.0981 461.283 -77.6811 457.992 -84.264 455.171C-106.364 505.003 -119.53 561.417 -120 620.651V624.882C-120 665.312 -113.417 704.331 -102.132 741.47C-51.8195 731.598 101.469 725.016 282.5 725.016Z" fill="#1F3664"/>
<path d="M1056.5 664.016C1237.53 664.016 1390.82 670.598 1441.13 680C1452.42 642.861 1459 602.901 1459 562.002V561.061C1459 499.477 1444.89 441.183 1419.97 389C1407.75 391.351 1375.77 396.052 1354.14 397.462C1329.22 398.872 1307.59 419.557 1277.97 424.258C1248.82 428.96 1230.48 445.884 1190.98 451.995C1151.48 457.637 1141.61 463.278 1116.69 461.868C1093.65 460.457 1048.98 518.281 1021.7 524.393C1007.13 522.512 985.028 498.536 958.226 494.305C929.073 489.604 898.509 463.278 868.416 444.943C838.322 426.609 781.427 416.737 763.089 416.737C744.751 416.737 732.995 416.737 709.015 403.574C702.902 400.283 696.319 396.992 689.736 394.171C667.636 444.003 654.47 500.417 654 559.651V563.882C654 604.312 660.583 643.331 671.868 680.47C722.18 670.598 875.469 664.016 1056.5 664.016Z" fill="#1F6491"/>
<path d="M-160.673 575.147C-110.556 602.804 -40.4626 570.946 29.6308 549.591C99.7243 528.236 274.608 587.75 322.972 583.899C371.336 580.048 359.771 560.794 369.935 529.986C380.098 499.179 416.196 507.231 416.196 507.231C417.248 506.181 418.299 505.13 419.351 504.08C419.351 501.28 419.701 498.479 419.701 495.678C419.701 474.323 417.598 453.668 413.393 433.713C404.981 426.712 395.519 421.46 388.86 418.31C367.131 407.807 357.668 423.211 343.65 429.862C329.631 436.514 321.921 430.913 327.178 419.01C332.435 407.107 328.229 399.055 328.229 399.055C312.808 370.698 295.636 395.904 276.36 387.152C257.084 378.4 252.879 377.35 234.304 377C215.729 376.65 225.542 389.953 232.902 396.254C240.262 402.206 235.706 403.256 223.439 412.008C211.173 420.76 219.935 418.31 220.636 430.213C221.336 442.115 211.173 437.214 193.65 439.315C176.126 441.065 162.808 424.611 146.687 415.509C130.916 406.757 104.981 408.857 89.5607 415.859C74.1402 423.211 104.981 437.914 113.393 448.067C121.453 458.219 116.196 459.62 109.187 462.07C102.178 464.521 92.715 456.469 94.1168 464.521C95.5187 472.573 122.855 475.723 128.463 475.723C134.07 475.723 145.285 475.373 150.192 482.025C155.098 489.027 137.575 488.326 134.771 487.276C131.967 486.226 122.505 486.226 114.444 486.226C106.383 486.226 77.2944 475.373 64.3271 465.221C51.3598 455.068 40.1449 463.12 24.0234 465.921C8.25235 468.722 -1.56075 455.419 -15.229 448.067C-28.8972 440.715 -47.1215 448.067 -53.4299 450.517C-59.7383 452.968 -68.1495 455.068 -74.1075 451.218C-79.715 447.367 -76.5607 441.415 -75.5093 434.414C-74.4579 427.412 -79.715 429.162 -84.6215 428.812C-89.528 428.462 -90.5794 422.861 -91.9813 418.66C-93.3832 414.459 -101.093 416.559 -107.402 423.561C-114.061 430.563 -114.061 442.115 -114.061 446.316C-114.411 450.517 -122.121 449.117 -128.78 446.316C-135.089 443.516 -144.902 448.067 -144.902 448.067C-152.262 450.167 -153.664 442.465 -167.332 448.417C-170.836 449.817 -173.991 451.918 -177.145 454.368C-179.949 467.672 -181 481.325 -181 495.678C-181 518.434 -178.196 540.839 -173.64 562.194C-166.28 569.896 -160.673 575.147 -160.673 575.147Z" fill="#1E6592"/>
<path d="M667.872 531.394C721.382 576.322 812.801 554.57 901.752 545.412C990.703 536.255 1186.12 648.669 1244.94 655.403C1303.76 662.136 1294.44 636.332 1313.85 601.774C1333.26 567.216 1374.59 585.344 1374.59 585.344C1376.1 584.331 1377.6 583.318 1379.11 582.306C1379.77 578.947 1380.84 575.671 1381.5 572.312C1386.52 546.704 1388.86 521.441 1388.51 496.525C1380.09 486.154 1369.99 477.636 1362.76 472.295C1339.21 454.601 1324.26 470.852 1305.91 475.538C1287.56 480.224 1279.64 471.697 1288.73 458.658C1297.83 445.618 1294.68 434.975 1294.68 434.975C1282.88 397.351 1256.4 423.547 1235.37 408.527C1214.35 393.508 1209.56 391.261 1187.4 386.482C1165.24 381.703 1173.86 399.959 1181.19 409.243C1188.61 418.107 1182.91 418.297 1166.16 425.913C1149.42 433.53 1160.48 432.647 1158.52 447.086C1156.57 461.524 1145.55 453.261 1124.07 451.667C1102.68 449.653 1090.6 426.796 1073.43 412.097C1056.61 397.9 1025.06 394.332 1004.95 399.109C984.754 404.306 1018.23 429.177 1025.91 443.326C1033.18 457.392 1026.56 457.838 1017.59 459.131C1008.62 460.425 999.179 448.548 998.965 458.533C998.751 468.518 1030.74 478.712 1037.46 480.028C1044.17 481.344 1057.68 483.556 1062 492.685C1066.22 502.232 1045.41 497.28 1042.3 495.362C1039.19 493.445 1027.86 491.224 1018.2 489.332C1008.55 487.44 976.27 467.599 963.129 452.381C949.989 437.163 934.667 444.186 914.704 443.761C895.162 443.418 886.538 425.162 871.9 413.138C857.261 401.113 833.711 405.652 825.581 407.11C817.451 408.568 806.886 409.113 800.657 403.097C794.847 397.163 800.023 390.766 802.928 382.617C805.833 374.467 799.126 375.332 793.333 373.761C787.54 372.19 787.598 365.226 786.907 359.859C786.216 354.492 776.49 355.202 767.29 362.117C757.671 368.951 754.955 382.804 753.968 387.842C752.561 392.798 743.657 389.309 736.342 384.387C729.447 379.548 716.627 382.703 716.627 382.703C707.32 383.494 707.452 373.929 689.686 377.858C685.161 378.715 680.89 380.493 676.537 382.692C670.053 397.987 665.585 414.113 662.211 431.325C656.862 458.613 654.953 486.139 655.389 512.817C662.392 523.78 667.872 531.394 667.872 531.394Z" fill="#1E6592"/>
<path d="M1056.33 334.437C1049.04 335.339 1028.7 338.343 1022.02 337.141C1015.34 336.24 1014.73 332.635 1009.87 326.926C1005.02 321.217 982.546 329.93 975.866 330.832C969.49 332.034 959.166 325.724 950.36 326.025C945.806 326.025 945.502 328.729 946.413 331.132C947.02 333.235 948.538 335.339 948.538 335.339C956.433 341.047 980.724 335.339 989.53 334.437C998.639 333.536 997.728 334.137 1005.62 338.944C1008.36 340.747 1008.36 341.348 1006.84 341.648C1003.8 342.249 995.299 340.446 991.048 339.846C986.493 338.944 986.19 339.545 988.012 341.949C988.619 342.85 989.833 344.052 991.048 345.554C995.603 350.362 1009.57 347.057 1017.77 344.352C1025.66 341.949 1034.77 341.949 1044.19 344.953C1053.6 347.958 1052.99 348.559 1059.06 347.057C1065.44 345.855 1055.72 343.752 1051.78 341.047C1047.83 338.644 1063.01 336.841 1070.3 338.944C1076.67 341.047 1082.44 341.949 1085.78 340.747C1086.69 340.446 1087.3 339.846 1087.91 338.944C1089.73 335.339 1063.62 333.536 1056.33 334.437Z" fill="#1E6592"/>
<path d="M92.1619 403.081C98.7233 404.56 116.291 405.194 113.751 403.503C113.539 403.503 113.539 403.292 113.328 403.292C110.153 401.812 99.7816 401.39 95.5484 399.065C91.1037 396.74 90.6804 396.529 88.9871 393.57C87.0822 390.611 86.8705 385.117 81.1558 387.23C75.4411 389.343 72.9012 389.977 71.6313 384.905C70.3613 379.622 75.0178 379.411 68.0331 375.184C61.0485 370.957 55.3337 367.998 50.889 371.591C46.4442 375.184 44.116 381.735 37.1313 380.045C30.1466 378.354 34.3798 383.215 28.8767 376.663C23.3736 370.112 28.2417 367.153 17.4473 368.21C6.44113 369.266 5.80616 376.663 -3.71838 376.029C-13.2429 375.395 -13.8779 364.405 -19.3809 372.859C-19.5926 373.07 -19.8043 373.282 -19.8043 373.493C-24.249 381.313 -15.1478 384.271 -11.338 390.189C-7.31654 396.106 19.3522 383.003 17.6589 390.823C15.754 398.642 -2.23679 401.39 16.8123 405.194C16.8123 405.194 26.5485 407.941 30.9933 403.292C35.438 398.642 39.2479 393.148 45.3859 394.416C51.5239 395.684 57.2387 405.617 65.4933 405.194C73.3245 404.771 85.3889 401.601 92.1619 403.081Z" fill="#1E6592"/>
<path d="M1116.31 478.01C1134.24 482.059 1182.26 483.794 1175.32 479.167C1174.74 479.167 1174.74 478.588 1174.16 478.588C1165.48 474.539 1137.14 473.383 1125.57 467.02C1113.42 460.658 1112.26 460.079 1107.63 451.982C1102.42 443.884 1101.85 428.846 1086.23 434.63C1070.61 440.414 1063.66 442.149 1060.19 428.267C1056.72 413.807 1069.45 413.229 1050.36 401.661C1031.27 390.093 1015.65 381.995 1003.5 391.828C991.347 401.661 984.984 419.591 965.892 414.964C946.801 410.337 958.371 423.64 943.33 405.71C928.288 387.779 941.594 379.681 912.089 382.573C882.006 385.465 880.27 405.71 854.236 403.974C828.203 402.239 826.467 372.162 811.425 395.298C810.847 395.877 810.268 396.455 810.268 397.033C798.119 418.434 822.996 426.532 833.409 442.727C844.401 458.923 917.296 423.062 912.668 444.462C907.461 465.863 858.286 473.383 910.354 483.794C910.354 483.794 936.966 491.313 949.115 478.588C961.264 465.863 971.677 450.825 988.455 454.295C1005.23 457.766 1020.85 484.951 1043.41 483.794C1064.82 482.637 1097.8 473.961 1116.31 478.01Z" fill="#1E6592"/>
<path d="M499.881 321.143C490.176 326.934 477.234 316.639 462.999 304.414C448.764 292.188 437.764 315.996 422.882 325.647C408.647 335.942 378.235 328.865 363.353 328.865C354.294 329.508 353 334.012 353 337.229C353 339.16 353.647 340.447 353.647 340.447C353.647 340.447 371.118 343.02 383.412 341.09C395.059 339.803 432.588 333.369 449.411 338.516C466.235 343.664 505.058 344.307 517.352 332.082C521.234 327.578 521.881 324.36 519.94 322.43C516.705 317.926 506.352 317.926 499.881 321.143Z" fill="#1E6592"/>
<path d="M1267.3 344.148C1269 345.117 1271.42 343.42 1274.09 340.996C1276.75 338.813 1278.69 343.178 1281.6 345.117C1284.27 346.815 1289.85 345.602 1292.76 345.602C1294.45 345.602 1294.69 346.572 1294.69 347.057C1294.69 347.3 1294.45 347.784 1294.45 347.784C1294.45 347.784 1291.3 348.269 1289.12 347.784C1286.94 347.542 1280.15 346.33 1277 347.3C1273.84 348.269 1266.57 348.269 1264.39 346.087C1263.66 345.36 1263.66 344.632 1263.9 344.39C1264.39 343.663 1266.09 343.663 1267.3 344.148Z" fill="#1E6592"/>
<path d="M1172.26 287.412C1173.96 284.26 1182.69 294.443 1192.38 300.263C1204.02 307.294 1205.72 292.746 1217.84 289.109C1229.72 285.715 1223.17 295.171 1234.81 289.594C1246.69 284.018 1260.02 282.805 1270.93 289.594C1281.6 296.383 1258.57 302.687 1253.48 307.051C1248.39 311.658 1252.27 313.113 1255.9 318.932C1259.3 324.751 1281.12 320.387 1290.82 313.113C1300.51 305.839 1304.15 297.838 1316.76 300.747C1329.36 303.657 1322.82 319.659 1322.09 326.448C1321.36 332.995 1330.82 330.813 1337.36 330.813C1343.91 330.813 1351.91 337.602 1354.58 341.481C1355.55 342.936 1355.06 343.421 1353.85 343.663C1351.67 343.906 1347.55 342.936 1347.55 342.936C1344.88 342.451 1340.03 338.329 1334.94 337.117C1329.85 336.147 1323.54 338.087 1310.94 341.723C1298.57 345.36 1298.33 338.571 1288.15 331.54C1277.97 324.509 1275.3 329.115 1264.15 335.904C1252.99 342.693 1232.39 340.754 1220.51 336.147C1208.87 331.783 1220.26 327.661 1225.84 319.659C1231.17 311.658 1222.2 315.053 1210.08 313.598C1197.72 312.143 1194.81 314.325 1187.53 310.931C1180.5 307.536 1188.5 307.294 1185.84 301.232C1183.41 295.656 1173.96 302.202 1172.26 291.049C1172.02 289.109 1172.02 288.139 1172.26 287.412Z" fill="#1E6592"/>
<path d="M1424.16 685V621.094H1425V611.833H1424.16V604.012L1425 603.909V594.956H1424.16V587.238H1424.85V578.8H1424.01V570.773H1424.69V561.82H1424.01V553.69H1425V545.149H1423.93V537.328H1425V528.375H1423.93V520.554H1425V511.807H1423.93V503.883H1425V492.357H1423.93V484.845C1423.93 484.845 1421.94 483.816 1421.87 483.61C1421.79 483.404 1421.87 476.818 1421.87 476.818H1408.64V471.776H1395.42V469.512H1379.29V471.158H1359.72V433.391H1353.45V431.951H1346.5L1345.66 433.083H1342.98V431.127H1331.82V423.409H1330.91V431.23L1329.3 431.127V424.644H1328V431.024H1323.49V428.452L1322.57 425.879V423.409H1320.59V422.38H1318.6H1317.15V419.602H1315.54V423.101L1314.93 423.204V426.497H1315.54V428.863H1313.17C1313.17 428.863 1313.33 422.586 1313.17 422.586C1313.02 422.586 1288.41 422.586 1288.41 422.586L1285.5 423.821C1285.5 423.821 1278.85 423.615 1278.78 423.821C1278.7 424.027 1278.78 422.38 1278.78 422.38H1274.11V423.821H1270.67V432.98H1261.42V436.684H1257.14V468.071L1253.47 468.174V475.275H1242.09V481.552H1225.96V471.158H1205.62V540.724H1201.96V539.077H1192.4V532.697H1174.82V462.617H1172.6V451.4H1158.69L1149.06 449.342V445.946H1148.45V449.239H1144.93V438.434H1137.6V433.083H1136.83V438.125H1134.84V433.391H1132.7V438.331H1109.01L1101.67 439.977V441.212L1090.36 443.373V444.505H1090.89V451.091H1086.77V454.59H1079.58V456.443L1075.61 456.751V452.223H1055.73V439.669H1032.65V438.743H1015.98L1008.88 441.315V453.252L993.359 457.163V467.66L991.448 468.997V474.76H990.683V480.626H991.601V487.212H990.989V492.872H991.83V499.046H991.066V500.178H991.371V505.015H991.983L992.059 511.395H991.371V512.424H991.601V517.364H992.212V523.435H991.066V524.876H991.524V529.301H992.136V535.373H991.524V536.71H991.983V541.65H992.518V547.927H991.524V548.751H991.983V553.999H992.441V556.263H962.631V549.574H963.09V544.223H961.561V537.842H962.554V528.992H961.866V520.142H946.426V510.469L949.178 510.263V505.221L941.076 505.118L940.464 431.23L935.113 430.407L925.482 430.819V420.631L923.266 420.219V418.881L910.271 417.544H907.061V416H904.768V417.749H872.588V424.953L865.479 428.761H853.402L854.854 626.754L853.402 626.446L852.791 571.287H849.198V570.052H833.146V446.255H819.311V435.141H800.89V447.695H797.985V454.384H788.125V636.531H779.105V633.649H775.895V638.383H771.385V456.957L768.48 455.105V438.125L767.487 436.067H749.447V447.387H726.44V453.87H723V645.072V685H1424.16Z" fill="#4480D2"/>
<path d="M1668.6 678.065V664.831L1670.43 663.934V543.486L1681.4 539V484.944L1653.13 483.374V484.047V445.468L1632.51 450.402V423.038L1594.26 421.692L1587.44 422.814L1586.11 423.486L1586.28 409.58H1580.62L1573.97 410.253V424.832L1557.68 427.972L1557.51 439.86L1548.86 440.085L1466.38 459.599V460.72V491.225L1473.53 491.673V502.215L1422.64 514.776V571.748L1364.6 567.935L1361.44 569.28L1290.1 592.832V634.327L1266.32 643.747L1221.09 641.28V543.262H1221.25V541.692L1221.75 541.467V540.122L1208.45 539.449V507.15L1186.5 506.477V504.234C1186.5 503.337 1186 502.439 1185.17 502.439C1184.34 502.439 1183.84 503.112 1183.84 504.234V506.477L1110.17 503.785L1110 510.738V513.654V514.327V519.71V522.851V525.991V527.112V555.15V556.271V557.617V558.963H1110.17V774.962H1147.08H1185H1221.09V775.186H1229.73V774.962H1251.85H1290.27H1437.44H1439.77H1443.93H1445.09H1459.06H1460.56H1465.55H1502.46H1504.63H1663.11H1668.43H1712V680.532L1668.6 678.065Z" fill="#1E6592"/>
<path d="M387.501 772.466H312.35V704.033L388.012 682.329L387.501 772.466Z" fill="#1E6592"/>
<path d="M65.6816 661.646H385.456V679.776L367.563 702.757H66.1929L65.6816 661.646Z" fill="#1F3664"/>
<path d="M343.024 741.824H312.35V772.466H343.024V741.824Z" fill="#4480D2"/>
<path d="M312.35 686.414H65.6816V688.202H312.35V686.414Z" fill="#4480D2"/>
<path d="M314.14 689.479H306.727C305.96 689.479 305.193 688.713 305.193 687.947C305.193 687.181 305.96 686.414 306.727 686.414H314.14C314.907 686.414 315.674 687.181 315.674 687.947C315.674 688.713 314.907 689.479 314.14 689.479Z" fill="#4480D2"/>
<path d="M315.673 687.947L312.35 694.075V688.202L315.673 687.947Z" fill="#4480D2"/>
<path d="M312.35 688.202H65.6816V758.932H312.35V688.202Z" fill="#1E6592"/>
<path d="M83.8306 418.558C83.0637 418.558 82.2969 417.792 82.2969 417.026V412.941C82.2969 412.175 83.0637 411.409 83.8306 411.409C84.5974 411.409 85.3642 412.175 85.3642 412.941V417.026C85.3642 418.048 84.5974 418.558 83.8306 418.558Z" fill="#1E6592"/>
<path d="M68.4932 448.944C68.4932 448.944 74.8835 440.518 77.4397 429.283C79.9958 418.048 80.7627 417.026 83.8301 417.026C87.4087 417.026 87.6643 420.856 89.9648 428.772C92.2654 436.943 99.167 448.944 99.167 448.944H68.4932Z" fill="#1E6592"/>
<path d="M74.8838 448.944C74.8838 448.944 78.4624 440.518 79.7405 429.283C81.0185 418.048 81.7854 417.026 83.0635 417.026C84.8528 417.026 85.1084 420.856 86.3865 428.772C87.6645 436.688 91.2431 448.944 91.2431 448.944H74.8838Z" fill="#4480D2"/>
<path d="M106.835 507.673L113.993 532.442V550.061H106.835V507.673Z" fill="#1E6592"/>
<path d="M113.226 543.166L121.917 575.85H118.849L110.925 548.018V544.698L113.226 543.166Z" fill="#1F3664"/>
<path d="M113.993 532.442H116.038L108.625 506.397L106.58 507.418L113.993 532.442Z" fill="#1F3664"/>
<path d="M104.024 477.543H105.557L99.6782 458.392L98.1445 458.903L104.024 477.543Z" fill="#1F3664"/>
<path d="M114.249 554.146H116.038L110.159 534.229L108.625 535.251L114.249 554.146Z" fill="#1F3664"/>
<path d="M50.3447 646.836V546.741H110.925V588.107H123.451V546.741H157.192L217.261 512.525L277.331 546.741H311.072V646.836H50.3447Z" fill="#4480D2"/>
<path d="M292.923 584.021H145.945L151.568 579.681H287.3L292.923 584.021Z" fill="#4480D2"/>
<path d="M293.179 584.021H145.945V586.83H293.179V584.021Z" fill="#1F3664"/>
<path d="M148.501 584.277C148.501 583.511 147.99 583 147.223 583C146.456 583 145.945 583.511 145.945 584.277V585.043H148.501V584.277Z" fill="#1F3664"/>
<path d="M151.313 585.043V584.277C151.313 583.511 150.802 583 150.035 583C149.268 583 148.757 583.511 148.757 584.277V585.043H151.313Z" fill="#1F3664"/>
<path d="M153.869 585.043V584.277C153.869 583.511 153.358 583 152.591 583C151.824 583 151.313 583.511 151.313 584.277V585.043H153.869Z" fill="#1F3664"/>
<path d="M156.681 585.043V584.277C156.681 583.511 156.17 583 155.403 583C154.636 583 154.125 583.511 154.125 584.277V585.043H156.681Z" fill="#1F3664"/>
<path d="M159.237 585.043V584.277C159.237 583.511 158.726 583 157.959 583C157.192 583 156.681 583.511 156.681 584.277V585.043H159.237Z" fill="#1F3664"/>
<path d="M161.793 585.043V584.277C161.793 583.511 161.282 583 160.515 583C159.749 583 159.237 583.511 159.237 584.277V585.043H161.793Z" fill="#1F3664"/>
<path d="M164.604 585.043V584.277C164.604 583.511 164.093 583 163.326 583C162.56 583 162.048 583.511 162.048 584.277V585.043H164.604Z" fill="#1F3664"/>
<path d="M167.161 585.043V584.277C167.161 583.511 166.649 583 165.883 583C165.116 583 164.604 583.511 164.604 584.277V585.043H167.161Z" fill="#1F3664"/>
<path d="M169.973 585.043V584.277C169.973 583.511 169.461 583 168.695 583C167.928 583 167.417 583.511 167.417 584.277V585.043H169.973Z" fill="#1F3664"/>
<path d="M172.529 585.043V584.277C172.529 583.511 172.018 583 171.251 583C170.484 583 169.973 583.511 169.973 584.277V585.043H172.529Z" fill="#1F3664"/>
<path d="M175.34 585.043V584.277C175.34 583.511 174.829 583 174.062 583C173.295 583 172.784 583.511 172.784 584.277V585.043H175.34Z" fill="#1F3664"/>
<path d="M177.896 585.043V584.277C177.896 583.511 177.385 583 176.618 583C175.852 583 175.34 583.511 175.34 584.277V585.043H177.896Z" fill="#1F3664"/>
<path d="M180.708 585.043V584.277C180.708 583.511 180.197 583 179.43 583C178.664 583 178.152 583.511 178.152 584.277V585.043H180.708Z" fill="#1F3664"/>
<path d="M183.265 585.043V584.277C183.265 583.511 182.753 583 181.987 583C181.22 583 180.708 583.511 180.708 584.277V585.043H183.265Z" fill="#1F3664"/>
<path d="M186.077 585.043V584.277C186.077 583.511 185.565 583 184.799 583C184.032 583 183.521 583.511 183.521 584.277V585.043H186.077Z" fill="#1F3664"/>
<path d="M188.633 585.043V584.277C188.633 583.511 188.122 583 187.355 583C186.588 583 186.077 583.511 186.077 584.277V585.043H188.633Z" fill="#1F3664"/>
<path d="M191.444 584.277C191.444 583.511 190.933 583 190.166 583C189.399 583 188.888 583.511 188.888 584.277V585.043H191.444V584.277Z" fill="#1F3664"/>
<path d="M194 585.043V584.277C194 583.511 193.489 583 192.722 583C191.955 583 191.444 583.511 191.444 584.277V585.043H194Z" fill="#1F3664"/>
<path d="M196.812 585.043V584.277C196.812 583.511 196.301 583 195.534 583C194.767 583 194.256 583.511 194.256 584.277V585.043H196.812Z" fill="#1F3664"/>
<path d="M199.368 585.043V584.277C199.368 583.511 198.857 583 198.09 583C197.323 583 196.812 583.511 196.812 584.277V585.043H199.368Z" fill="#1F3664"/>
<path d="M202.18 585.043V584.277C202.18 583.511 201.669 583 200.902 583C200.135 583 199.624 583.511 199.624 584.277V585.043H202.18Z" fill="#1F3664"/>
<path d="M204.736 585.043V584.277C204.736 583.511 204.225 583 203.458 583C202.691 583 202.18 583.511 202.18 584.277V585.043H204.736Z" fill="#1F3664"/>
<path d="M207.548 585.043V584.277C207.548 583.511 207.037 583 206.27 583C205.503 583 204.992 583.511 204.992 584.277V585.043H207.548Z" fill="#1F3664"/>
<path d="M210.104 585.043V584.277C210.104 583.511 209.593 583 208.826 583C208.06 583 207.548 583.511 207.548 584.277V585.043H210.104Z" fill="#1F3664"/>
<path d="M212.916 585.043V584.277C212.916 583.511 212.405 583 211.638 583C210.872 583 210.36 583.511 210.36 584.277V585.043H212.916Z" fill="#1F3664"/>
<path d="M215.472 585.043V584.277C215.472 583.511 214.961 583 214.194 583C213.427 583 212.916 583.511 212.916 584.277V585.043H215.472Z" fill="#1F3664"/>
<path d="M218.028 585.043V584.277C218.028 583.511 217.517 583 216.75 583C215.983 583 215.472 583.511 215.472 584.277V585.043H218.028Z" fill="#1F3664"/>
<path d="M220.84 585.043V584.277C220.84 583.511 220.329 583 219.562 583C218.795 583 218.284 583.511 218.284 584.277V585.043H220.84Z" fill="#1F3664"/>
<path d="M223.396 585.043V584.277C223.396 583.511 222.885 583 222.118 583C221.351 583 220.84 583.511 220.84 584.277V585.043H223.396Z" fill="#1F3664"/>
<path d="M226.208 585.043V584.277C226.208 583.511 225.697 583 224.93 583C224.163 583 223.652 583.511 223.652 584.277V585.043H226.208Z" fill="#1F3664"/>
<path d="M228.764 585.043V584.277C228.764 583.511 228.253 583 227.486 583C226.719 583 226.208 583.511 226.208 584.277V585.043H228.764Z" fill="#1F3664"/>
<path d="M231.32 585.043V584.277V584.021C231.065 583.511 230.553 583 230.042 583C229.275 583 228.764 583.511 228.764 584.277V585.043H231.32Z" fill="#1F3664"/>
<path d="M231.576 585.043H234.132V584.277C234.132 583.511 233.621 583 232.854 583C232.343 583 231.831 583.511 231.576 584.021V584.277V585.043Z" fill="#1F3664"/>
<path d="M236.688 585.043V584.277C236.688 583.511 236.177 583 235.41 583C234.643 583 234.132 583.511 234.132 584.277V585.043H236.688Z" fill="#1F3664"/>
<path d="M239.5 585.043V584.277C239.5 583.511 238.989 583 238.222 583C237.455 583 236.944 583.511 236.944 584.277V585.043H239.5Z" fill="#1F3664"/>
<path d="M242.056 585.043V584.277C242.056 583.511 241.545 583 240.778 583C240.011 583 239.5 583.511 239.5 584.277V585.043H242.056Z" fill="#1F3664"/>
<path d="M244.868 585.043V584.277C244.868 583.511 244.357 583 243.59 583C242.823 583 242.312 583.511 242.312 584.277V585.043H244.868Z" fill="#1F3664"/>
<path d="M247.424 585.043V584.277C247.424 583.511 246.913 583 246.146 583C245.379 583 244.868 583.511 244.868 584.277V585.043H247.424Z" fill="#1F3664"/>
<path d="M250.235 585.043V584.277C250.235 583.511 249.724 583 248.957 583C248.19 583 247.679 583.511 247.679 584.277V585.043H250.235Z" fill="#1F3664"/>
<path d="M252.792 585.043V584.277C252.792 583.511 252.28 583 251.513 583C250.747 583 250.235 583.511 250.235 584.277V585.043H252.792Z" fill="#1F3664"/>
<path d="M255.604 585.043V584.277C255.604 583.511 255.092 583 254.325 583C253.559 583 253.047 583.511 253.047 584.277V585.043H255.604Z" fill="#1F3664"/>
<path d="M258.16 585.043V584.277C258.16 583.511 257.648 583 256.882 583C256.115 583 255.604 583.511 255.604 584.277V585.043H258.16Z" fill="#1F3664"/>
<path d="M260.972 585.043V584.277C260.972 583.511 260.46 583 259.694 583C258.927 583 258.416 583.511 258.416 584.277V585.043H260.972Z" fill="#1F3664"/>
<path d="M263.528 585.043V584.277C263.528 583.511 263.017 583 262.25 583C261.483 583 260.972 583.511 260.972 584.277V585.043H263.528Z" fill="#1F3664"/>
<path d="M266.34 585.043V584.277C266.34 583.511 265.829 583 265.062 583C264.295 583 263.784 583.511 263.784 584.277V585.043H266.34Z" fill="#1F3664"/>
<path d="M268.896 585.043V584.277C268.896 583.511 268.385 583 267.618 583C266.851 583 266.34 583.511 266.34 584.277V585.043H268.896Z" fill="#1F3664"/>
<path d="M271.452 585.043V584.277C271.452 583.511 270.941 583 270.174 583C269.407 583 268.896 583.511 268.896 584.277V585.043H271.452Z" fill="#1F3664"/>
<path d="M274.264 585.043V584.277C274.264 583.511 273.752 583 272.986 583C272.219 583 271.708 583.511 271.708 584.277V585.043H274.264Z" fill="#1F3664"/>
<path d="M277.075 584.277C277.075 583.511 276.564 583 275.797 583C275.03 583 274.519 583.511 274.519 584.277V585.043H277.075V584.277Z" fill="#1F3664"/>
<path d="M279.631 585.043V584.277C279.631 583.511 279.12 583 278.353 583C277.586 583 277.075 583.511 277.075 584.277V585.043H279.631Z" fill="#1F3664"/>
<path d="M282.188 585.043V584.277C282.188 583.511 281.676 583 280.909 583C280.143 583 279.631 583.511 279.631 584.277V585.043H282.188Z" fill="#1F3664"/>
<path d="M284.999 585.043V584.277C284.999 583.511 284.488 583 283.721 583C282.954 583 282.443 583.511 282.443 584.277V585.043H284.999Z" fill="#1F3664"/>
<path d="M287.555 585.043V584.277C287.555 583.511 287.044 583 286.277 583C285.51 583 284.999 583.511 284.999 584.277V585.043H287.555Z" fill="#1F3664"/>
<path d="M290.367 585.043V584.277C290.367 583.511 289.856 583 289.089 583C288.322 583 287.811 583.511 287.811 584.277V585.043H290.367Z" fill="#1F3664"/>
<path d="M292.923 585.043V584.277C292.923 583.511 292.412 583 291.645 583C290.878 583 290.367 583.511 290.367 584.277V585.043H292.923Z" fill="#1F3664"/>
<path d="M292.923 586.575H145.945L137.254 596.789V602.406H285.255L292.923 586.575Z" fill="#1E6592"/>
<path d="M217.261 558.232C222.908 558.232 227.486 553.659 227.486 548.018C227.486 542.377 222.908 537.804 217.261 537.804C211.614 537.804 207.037 542.377 207.037 548.018C207.037 553.659 211.614 558.232 217.261 558.232Z" fill="#4480D2" stroke="#1E6592" stroke-width="0.5" stroke-miterlimit="10"/>
<path d="M217.261 552.869C219.944 552.869 222.118 550.697 222.118 548.018C222.118 545.338 219.944 543.166 217.261 543.166C214.579 543.166 212.405 545.338 212.405 548.018C212.405 550.697 214.579 552.869 217.261 552.869Z" fill="#1F3664"/>
<path d="M156.936 541.379H121.406V545.975H156.936V541.379Z" fill="#4480D2"/>
<path d="M313.117 541.379H277.586V545.975H313.117V541.379Z" fill="#4480D2"/>
<path d="M217.261 511.759L156.68 545.975V541.379L217.261 506.907V511.759Z" fill="#4480D2"/>
<path d="M217.261 511.759L277.586 545.975V541.379L217.261 506.907V511.759Z" fill="#1E6592"/>
<path d="M280.142 600.363H158.981V635.09H280.142V600.363Z" fill="#4480D2"/>
<path d="M280.142 600.363H158.981V602.917H280.142V600.363Z" fill="#1E6592"/>
<path d="M181.987 604.704H161.282V634.324H181.987V604.704Z" fill="#1E6592"/>
<path d="M181.475 605.47H162.048V633.814H181.475V605.47Z" fill="#1F3664"/>
<path d="M168.95 605.215H168.184V634.324H168.95V605.215Z" fill="#1E6592"/>
<path d="M175.341 605.215H174.574V634.324H175.341V605.215Z" fill="#1E6592"/>
<path d="M181.476 611.088H161.538V611.854H181.476V611.088Z" fill="#1E6592"/>
<path d="M181.476 616.706H161.538V617.472H181.476V616.706Z" fill="#1E6592"/>
<path d="M181.476 622.323H161.538V623.089H181.476V622.323Z" fill="#1E6592"/>
<path d="M181.476 627.941H161.538V628.707H181.476V627.941Z" fill="#1E6592"/>
<path d="M206.014 604.704H185.31V634.324H206.014V604.704Z" fill="#1E6592"/>
<path d="M205.503 605.47H186.076V633.814H205.503V605.47Z" fill="#1F3664"/>
<path d="M192.978 605.215H192.211V634.324H192.978V605.215Z" fill="#1E6592"/>
<path d="M199.113 605.215H198.346V634.324H199.113V605.215Z" fill="#1E6592"/>
<path d="M205.503 611.088H185.565V611.854H205.503V611.088Z" fill="#1E6592"/>
<path d="M205.503 616.706H185.565V617.472H205.503V616.706Z" fill="#1E6592"/>
<path d="M205.503 622.323H185.565V623.089H205.503V622.323Z" fill="#1E6592"/>
<path d="M205.503 627.941H185.565V628.707H205.503V627.941Z" fill="#1E6592"/>
<path d="M230.042 604.704H209.337V634.324H230.042V604.704Z" fill="#1E6592"/>
<path d="M229.275 605.47H209.849V633.814H229.275V605.47Z" fill="#1F3664"/>
<path d="M216.75 605.215H215.983V634.324H216.75V605.215Z" fill="#1E6592"/>
<path d="M223.14 605.215H222.374V634.324H223.14V605.215Z" fill="#1E6592"/>
<path d="M229.531 611.088H209.593V611.854H229.531V611.088Z" fill="#1E6592"/>
<path d="M229.531 616.706H209.593V617.472H229.531V616.706Z" fill="#1E6592"/>
<path d="M229.531 622.323H209.593V623.089H229.531V622.323Z" fill="#1E6592"/>
<path d="M229.531 627.941H209.593V628.707H229.531V627.941Z" fill="#1E6592"/>
<path d="M253.815 604.704H233.11V634.324H253.815V604.704Z" fill="#1E6592"/>
<path d="M253.303 605.47H233.876V633.814H253.303V605.47Z" fill="#1F3664"/>
<path d="M240.779 605.215H240.012V634.324H240.779V605.215Z" fill="#1E6592"/>
<path d="M247.169 605.215H246.402V634.324H247.169V605.215Z" fill="#1E6592"/>
<path d="M253.56 611.088H233.622V611.854H253.56V611.088Z" fill="#1E6592"/>
<path d="M253.56 616.706H233.622V617.472H253.56V616.706Z" fill="#1E6592"/>
<path d="M253.56 622.323H233.622V623.089H253.56V622.323Z" fill="#1E6592"/>
<path d="M253.56 627.941H233.622V628.707H253.56V627.941Z" fill="#1E6592"/>
<path d="M277.842 604.704H257.137V634.324H277.842V604.704Z" fill="#1E6592"/>
<path d="M277.331 605.47H257.904V633.814H277.331V605.47Z" fill="#1F3664"/>
<path d="M264.806 605.215H264.039V634.324H264.806V605.215Z" fill="#1E6592"/>
<path d="M271.197 605.215H270.43V634.324H271.197V605.215Z" fill="#1E6592"/>
<path d="M277.331 611.088H257.393V611.854H277.331V611.088Z" fill="#1E6592"/>
<path d="M277.331 616.706H257.393V617.472H277.331V616.706Z" fill="#1E6592"/>
<path d="M277.331 622.323H257.393V623.089H277.331V622.323Z" fill="#1E6592"/>
<path d="M277.331 627.941H257.393V628.707H277.331V627.941Z" fill="#1E6592"/>
<path d="M185.309 600.363H181.986V635.09H185.309V600.363Z" fill="#4480D2"/>
<path d="M209.337 600.363H206.014V635.09H209.337V600.363Z" fill="#4480D2"/>
<path d="M233.365 600.363H230.042V635.09H233.365V600.363Z" fill="#4480D2"/>
<path d="M257.137 600.363H253.814V635.09H257.137V600.363Z" fill="#4480D2"/>
<path d="M281.165 635.09H157.703V636.878H281.165V635.09Z" fill="#4480D2"/>
<path d="M281.165 598.831H157.703V600.619H281.165V598.831Z" fill="#4480D2"/>
<path d="M113.226 543.166H46.5107V545.975H113.226V543.166Z" fill="#4480D2"/>
<path d="M109.648 534.485H50.0894V536.017H109.648V534.485Z" fill="#4480D2"/>
<path d="M123.45 550.316H156.68V548.784L214.194 516.1L277.586 551.593V579.681H282.187V551.593H310.816V545.975H277.586L217.261 511.759L156.68 545.975H123.45V550.316Z" fill="#1F3664"/>
<path d="M110.925 545.975L118.849 574.318V587.596H110.925V545.975Z" fill="#1E6592"/>
<path d="M46.5107 545.975L50.0894 554.146V545.975H46.5107Z" fill="#1E6592"/>
<path d="M280.909 636.878H157.703L154.38 639.176V641.474H278.353L280.909 636.878Z" fill="#1E6592"/>
<path d="M107.858 536.017H51.8779V543.422H107.858V536.017Z" fill="#4480D2"/>
<path d="M108.625 506.397H53.1562V507.929H108.625V506.397Z" fill="#4480D2"/>
<path d="M106.835 507.673H54.6899V534.229H106.835V507.673Z" fill="#4480D2"/>
<path d="M110.926 545.975H50.0894V556.7H110.926V545.975Z" fill="#1E6592"/>
<path d="M106.835 507.673H54.6899V511.759H106.835V507.673Z" fill="#1E6592"/>
<path d="M107.858 536.017H51.8779V538.059H107.858V536.017Z" fill="#1E6592"/>
<path d="M98.6562 459.924L104.024 477.543V506.141H98.6562V459.924Z" fill="#1E6592"/>
<path d="M100.189 458.392H62.3584V459.924H100.189V458.392Z" fill="#4480D2"/>
<path d="M88.4311 444.093H76.1616V445.625H88.4311V444.093Z" fill="#1E6592"/>
<path d="M100.701 495.417H62.3584V506.141H100.701V495.417Z" fill="#4480D2"/>
<path d="M98.4003 459.924H64.1479V495.417H98.4003V459.924Z" fill="#4480D2"/>
<path d="M98.4003 459.924H64.1479V463.243H98.4003V459.924Z" fill="#1E6592"/>
<path d="M84.5969 471.414H77.4397C76.1616 471.414 75.1392 472.436 75.1392 473.713V484.182C75.1392 485.458 76.1616 486.48 77.4397 486.48H84.5969C85.875 486.48 86.8974 485.458 86.8974 484.182V473.713C86.6418 472.436 85.6194 471.414 84.5969 471.414ZM84.3413 483.926H77.4397V473.713H84.3413V483.926Z" fill="#1E6592"/>
<path d="M84.8525 470.648H78.2065C77.1841 470.648 76.1616 471.67 76.1616 472.691V482.394C76.1616 483.416 77.1841 484.437 78.2065 484.437H84.8525C85.875 484.437 86.8974 483.416 86.8974 482.394V472.691C86.8974 471.415 85.875 470.648 84.8525 470.648ZM84.8525 482.139H78.4621V472.691H84.8525V482.139Z" fill="#4480D2"/>
<path d="M84.5964 472.691H78.2061V482.139H84.5964V472.691Z" fill="#1F3664"/>
<path d="M88.4311 445.625H76.1616V458.392H88.4311V445.625Z" fill="#4480D2"/>
<path d="M69.2603 450.476V458.392H76.1619V445.625L69.2603 450.476Z" fill="#1E6592"/>
<path d="M97.6335 450.476V458.392H88.687V445.625L97.6335 450.476Z" fill="#1E6592"/>
<path d="M88.687 445.625L97.6335 450.476V448.944L88.687 444.093V445.625Z" fill="#1F3664"/>
<path d="M97.6338 450.476L99.6787 458.392H97.6338V450.476Z" fill="#1F3664"/>
<path d="M76.1616 444.093L68.4932 449.2V450.732L76.1616 445.625V444.093Z" fill="#1F3664"/>
<path d="M125.495 581.468L87.9197 604.704H66.1924V608.534H87.9197L125.495 585.553H128.051V581.723L125.495 581.468Z" fill="#1F3664"/>
<path d="M87.6643 601.129H63.8921V604.96H87.6643V601.129Z" fill="#1E6592"/>
<path d="M125.495 581.723L87.9199 604.704V601.129L125.495 578.148V581.723Z" fill="#1E6592"/>
<path d="M128.307 578.148H125.496V581.979H128.307V578.148Z" fill="#1E6592"/>
<path d="M75.395 596.023H65.6816V601.129H75.395V596.023Z" fill="#1F3664"/>
<path d="M83.8303 412.941C83.5747 412.941 83.0635 412.685 83.0635 412.175V368.766C83.0635 368.511 83.3191 368 83.8303 368C84.086 368 84.5972 368.255 84.5972 368.766V412.43C84.5972 412.685 84.086 412.941 83.8303 412.941Z" fill="#1F3664"/>
<path d="M96.8667 393.79C96.8667 394.045 96.6111 394.556 96.0998 394.556H71.5608C71.3052 394.556 70.7939 394.3 70.7939 393.79C70.7939 393.534 71.0496 393.024 71.5608 393.024H96.0998C96.3555 393.279 96.8667 393.534 96.8667 393.79Z" fill="#1F3664"/>
<path d="M83.8303 400.939L76.9287 394.045L83.8303 387.151L90.7319 394.045L83.8303 400.939ZM78.2068 393.79L83.8303 399.407L89.4538 393.79L83.8303 388.172L78.2068 393.79Z" fill="#1F3664"/>
<path d="M422.264 646.836H-34.5195V649.134H422.264V646.836Z" fill="#1F3664"/>
<path d="M422.264 646.836H-34.5195L-30.6853 644.538H418.43L422.264 646.836Z" fill="#4480D2"/>
<path d="M416.896 649.134H-29.6631V653.73H416.896V649.134Z" fill="#1E6592"/>
<path d="M415.107 658.327H-25.8289L-29.6631 653.73H416.896L415.107 658.327Z" fill="#1F3664"/>
<path d="M385.456 658.327H65.6816V661.646H385.456V658.327Z" fill="#4480D2"/>
<path d="M413.062 658.327H385.456V665.987H413.062V658.327Z" fill="#1E6592"/>
<path d="M413.062 666.242H385.456V772.21H413.062V666.242Z" fill="#4480D2"/>
<path d="M65.6818 658.327H-25.0615V772.21H65.6818V658.327Z" fill="#4480D2"/>
<path d="M65.6813 658.327H-25.5732V673.903H65.6813V658.327Z" fill="#1E6592"/>
<path d="M115.782 709.651H101.468V730.334H115.782V709.651Z" fill="#1F3664"/>
<path d="M314.139 751.017H65.6816V758.932H314.139V751.017Z" fill="#4480D2"/>
<path d="M314.139 758.932H65.6816V772.465H314.139V758.932Z" fill="#1E6592"/>
<path d="M254.581 714.502H192.722V772.466H254.581V714.502Z" fill="#1E6592"/>
<path d="M246.657 718.333H200.646V772.466H246.657V718.333Z" fill="#4480D2"/>
<path d="M245.635 719.099H201.669V771.444H245.635V719.099Z" fill="#1E6592"/>
<path d="M224.419 719.099H222.885V771.444H224.419V719.099Z" fill="#4480D2"/>
<path d="M192.722 714.502L200.646 718.333H246.657L254.581 714.502H192.722Z" fill="#1F3664"/>
<path d="M291.901 661.646H269.918V772.21H291.901V661.646Z" fill="#4480D2"/>
<path d="M178.408 661.646H156.425V772.21H178.408V661.646Z" fill="#4480D2"/>
<path d="M367.563 702.757H312.35V705.31H367.563V702.757Z" fill="#4480D2"/>
<path d="M367.562 702.757L385.456 679.776V684.627L367.562 705.31V702.757Z" fill="#1E6592"/>
<path d="M379.577 727.27C379.577 721.907 377.532 713.736 375.231 713.736C372.675 713.736 370.886 721.907 370.886 727.27V772.466H379.832V727.27H379.577Z" fill="#1F3664"/>
<path d="M346.092 741.824H342.769V772.466H346.092V741.824Z" fill="#1F3664"/>
<path d="M370.63 766.848H346.091V772.466H370.63V766.848Z" fill="#4480D2"/>
<path d="M0.49975 693.819L-2.82324 699.182V701.224H39.3532L42.4206 693.819H0.49975Z" fill="#1E6592"/>
<path d="M39.3532 693.819H3.31152V740.547H39.3532V693.819Z" fill="#4480D2"/>
<path d="M38.0752 696.884H4.84521V739.015H38.0752V696.884Z" fill="#1F3664"/>
<path d="M42.4213 692.287H0.500488V693.819H42.4213V692.287Z" fill="#4480D2"/>
<path d="M42.4213 740.548H0.500488V742.08H42.4213V740.548Z" fill="#4480D2"/>
<path d="M43.1877 742.08H-0.0112305V743.612H43.1877V742.08Z" fill="#4480D2"/>
<path d="M39.3532 693.819H3.31152V695.607H39.3532V693.819Z" fill="#4480D2"/>
<path d="M-0.011476 743.612L-1.28955 745.144V747.697H40.6313L42.9318 743.612H-0.011476Z" fill="#1E6592"/>
<path d="M66.7045 765.571H-26.3394V772.21H66.7045V765.571Z" fill="#4480D2"/>
<path d="M413.829 765.827H384.689V772.466H413.829V765.827Z" fill="#4480D2"/>
<path d="M422.52 772.466H-34.5195V779.104H422.52V772.466Z" fill="#4480D2"/>
<path d="M428.399 779.104H-40.1436V787.276H428.399V779.104Z" fill="#4480D2"/>
<path d="M433 787.02H-45V798H433V787.02Z" fill="#4480D2"/>
<path d="M428.399 784.977H-40.1436V787.276H428.399V784.977Z" fill="#1E6592"/>
<path d="M422.52 776.806H-34.5195V779.104H422.52V776.806Z" fill="#1E6592"/>
<path d="M66.7035 770.423H-26.3403V772.466H66.7035V770.423Z" fill="#1E6592"/>
<path d="M413.829 770.933H384.688V772.21H413.829V770.933Z" fill="#1E6592"/>
<path d="M88.4311 527.08C88.4311 522.739 84.8525 519.419 80.5071 519.419C76.1616 519.419 72.583 522.994 72.583 527.08V533.463H88.1755V527.08H88.4311Z" fill="#1E6592"/>
<path d="M88.6865 526.058C88.6865 521.973 85.3635 518.653 81.2737 518.653C77.1838 518.653 73.8608 521.973 73.8608 526.058V532.186H88.4309V526.058H88.6865Z" fill="#4480D2"/>
<path d="M81.529 519.675C77.9504 519.675 75.1387 522.483 75.1387 526.058V528.101C75.1387 524.526 77.9504 521.717 81.529 521.717C85.1077 521.717 87.9194 524.526 87.9194 528.101V526.058C87.9194 522.739 84.852 519.675 81.529 519.675Z" fill="#1E6592"/>
<path d="M81.529 521.717C77.9504 521.717 75.1387 524.526 75.1387 528.101V531.165H87.9194V528.101C87.9194 524.526 84.852 521.717 81.529 521.717Z" fill="#1F3664"/>
<path d="M82.2964 519.419H80.7627V531.676H82.2964V519.419Z" fill="#4480D2"/>
</g>
</svg>
